<?xml version="1.0" encoding="UTF-8" standalone="no"?>
<!-- Created with Inkscape (http://www.inkscape.org/) -->

<svg
   width="210"
   height="70"
   viewBox="0 0 55.562499 18.520833"
   version="1.1"
   id="svg1"
   xml:space="preserve"
   inkscape:version="1.4 (86a8ad7, 2024-10-11)"
   sodipodi:docname="Logo_FB.proj.svg"
   inkscape:export-filename="Logo_FB.png"
   inkscape:export-xdpi="960"
   inkscape:export-ydpi="960"
   xmlns:inkscape="http://www.inkscape.org/namespaces/inkscape"
   xmlns:sodipodi="http://sodipodi.sourceforge.net/DTD/sodipodi-0.dtd"
   xmlns="http://www.w3.org/2000/svg"
   xmlns:svg="http://www.w3.org/2000/svg"><sodipodi:namedview
     id="namedview1"
     pagecolor="#ffffff"
     bordercolor="#000000"
     borderopacity="0.25"
     inkscape:showpageshadow="2"
     inkscape:pageopacity="0.0"
     inkscape:pagecheckerboard="true"
     inkscape:deskcolor="#d1d1d1"
     inkscape:document-units="px"
     inkscape:zoom="2.8756734"
     inkscape:cx="57.377865"
     inkscape:cy="51.640079"
     inkscape:window-width="1920"
     inkscape:window-height="1009"
     inkscape:window-x="-8"
     inkscape:window-y="-8"
     inkscape:window-maximized="1"
     inkscape:current-layer="svg1"
     showgrid="false"
     showguides="true"><inkscape:grid
       id="grid2"
       units="px"
       originx="0"
       originy="0"
       spacingx="0.26458333"
       spacingy="0.26458333"
       empcolor="#0099e5"
       empopacity="0.30196078"
       color="#0099e5"
       opacity="0.14901961"
       empspacing="5"
       enabled="true"
       visible="false" /></sodipodi:namedview><defs
     id="defs1" /><path
     id="rect2"
     style="display:inline;fill:#ffffff;stroke-width:0.266732"
     d="M 2.6458333 0 C 2.6458333 0 0 -0.0019300143 0 2.6458333 L 0 15.875 C -7.9103391e-20 15.875 -0.0018997143 18.520833 2.6458333 18.520833 L 52.916666 18.520833 C 52.916666 18.520833 55.562499 18.522733 55.562499 15.875 L 55.562499 2.6458333 C 55.562499 2.6458333 55.564399 0 52.916666 0 L 2.6458333 0 z "
     inkscape:label="bg" /><g
     inkscape:label="sharp"
     id="layer1-5"
     transform="scale(2.6458333)"><path
       id="rect8-1"
       style="display:inline;fill:#7fbc00;fill-opacity:1;stroke-width:0.116054"
       d="M 1.2470283,2 C 1.2200187,2.0009809 1.00709,2.0160905 1,2.2387597 V 2.7529715 C 1.0009809,2.7799813 1.01609,2.99291 1.2387597,3 H 2 V 2 Z"
       inkscape:label="G1" /><path
       id="rect8-8-5"
       style="display:inline;fill:#f34f1c;fill-opacity:1;stroke-width:0.25949"
       d="M 2.2475452,1 C 2.2200773,1.0009974 2,1.016461 2,1.2501033 v 4.502377 C 2.0009975,5.7799451 2.016463,6 2.2501292,6 H 2.7529715 C 2.7799813,5.9990191 2.99291,5.983911 3,5.7612649 V 1.2470028 C 2.9990191,1.219996 2.9844263,1.0070893 2.7617571,1 Z"
       inkscape:label="R" /><path
       id="rect8-5"
       style="display:inline;fill:#ffba01;fill-opacity:1;stroke-width:0.259423"
       d="M 4.2474173,1 C 4.2199638,1.0009974 4,1.0164613 4,1.2501033 V 5.7498966 C 4,5.7498966 4.0008848,6 4.25,6 H 4.7525827 C 4.7800363,5.9990025 5,5.9835387 5,5.7498966 V 1.2501033 C 5,1.2501033 4.9990063,1.0075699 4.7613636,1 Z"
       inkscape:label="Y" /><path
       id="rect8-8"
       style="display:inline;fill:#01a6f0;fill-opacity:1;stroke-width:0.259423"
       d="M 1.2501033,4 C 1.2501033,4 1.0075699,4.0009936 1,4.2386363 V 4.7525827 C 1.0009974,4.7800363 1.016461,5 1.2501033,5 H 5.7498966 C 5.7498966,5 6,4.9991152 6,4.75 V 4.2474173 C 5.9990025,4.2199639 5.9835385,4 5.7498966,4 Z"
       inkscape:label="B" /><path
       id="rect8"
       style="display:inline;fill:#7fbc00;fill-opacity:1;stroke-width:0.200993"
       d="M 3,2 V 3 H 5.7524974 C 5.7799602,2.9990024 6,2.9840536 6,2.7503875 V 2.2475452 C 5.9990026,2.2200777 5.9835396,2 5.7499138,2 Z"
       inkscape:label="G2" /></g><g
     inkscape:label="图层 1"
     inkscape:groupmode="layer"
     id="layer1"
     style="display:inline"><path
       id="rect1"
       style="fill:#1a1a1a;stroke-width:0.283507"
       d="M 19.175057 13.229167 C 19.102387 13.231345 18.520833 13.268352 18.520833 13.890625 L 18.520833 15.220776 C 18.523011 15.293446 18.560019 15.875 19.182292 15.875 L 20.512443 15.875 C 20.585113 15.872822 21.166667 15.835815 21.166667 15.213542 L 21.166667 13.88339 C 21.164489 13.81072 21.127481 13.229167 20.505208 13.229167 L 19.175057 13.229167 z "
       inkscape:label="dot" /><path
       id="rect1-2"
       style="fill:#1a1a1a;stroke-width:0.567014"
       d="M 24.466724 2.6458333 C 24.394054 2.6480114 23.8125 2.6850185 23.8125 3.3072917 L 23.8125 5.2916667 L 23.8125 15.220776 C 23.814678 15.293446 23.851685 15.875 24.473958 15.875 L 25.80411 15.875 C 25.87678 15.872822 26.458333 15.835815 26.458333 15.213542 L 26.458333 5.2916667 L 29.104167 5.2916667 L 29.104167 15.220776 C 29.106345 15.293446 29.143352 15.875 29.765625 15.875 L 31.095776 15.875 C 31.168446 15.872822 31.75 15.835815 31.75 15.213542 L 31.75 5.2916667 L 31.75 3.300057 C 31.747822 3.227387 31.710815 2.6458333 31.088542 2.6458333 L 24.466724 2.6458333 z "
       inkscape:label="N" /><path
       id="rect1-2-1"
       style="display:inline;fill:#1a1a1a;stroke-width:0.567014"
       d="m 41.679109,15.874999 c 0.07267,-0.0022 0.654224,-0.03919 0.654224,-0.661458 V 13.229166 3.3000573 c -0.0022,-0.07267 -0.03918,-0.654224 -0.661458,-0.654224 h -1.330152 c -0.07267,0.0022 -0.654223,0.03918 -0.654223,0.661458 V 13.229166 H 37.041666 V 3.3000573 c -0.0022,-0.07267 -0.03918,-0.654224 -0.661458,-0.654224 h -1.330151 c -0.07267,0.0022 -0.654224,0.03919 -0.654224,0.661458 v 9.9218747 1.991609 c 0.0022,0.07267 0.03918,0.654224 0.661458,0.654224 z"
       inkscape:label="U" /><path
       id="rect1-2-7-7-5"
       style="fill:#1a1a1a;stroke-width:0.491049"
       d="M -2.6458333 45.63339 C -2.6480114 45.56072 -2.6850185 44.979167 -3.3072917 44.979167 L -4.637443 44.979167 C -4.710113 44.981345 -5.2916667 45.018353 -5.2916667 45.640625 L -5.2916667 47.625 L -15.220776 47.625 C -15.293446 47.627178 -15.875 47.664185 -15.875 48.286458 L -15.875 49.61661 C -15.872822 49.68928 -15.835815 50.270833 -15.213542 50.270833 L -5.2916667 50.270833 L -5.2916667 52.262443 C -5.2894886 52.335113 -5.2524815 52.916667 -4.6302083 52.916667 L -3.300057 52.916667 C -3.227387 52.914489 -2.6458333 52.877481 -2.6458333 52.255208 L -2.6458333 45.63339 z "
       transform="rotate(-90)"
       inkscape:label="T" /></g></svg>
