<?xml version="1.0" encoding="UTF-8" standalone="no"?>
<!-- Created with Inkscape (http://www.inkscape.org/) -->

<svg
   width="113.37mm"
   height="43.698002mm"
   viewBox="0 0 113.37 43.698002"
   version="1.1"
   id="svg1"
   inkscape:version="1.4 (86a8ad7, 2024-10-11)"
   sodipodi:docname="YAE.svg"
   xmlns:inkscape="http://www.inkscape.org/namespaces/inkscape"
   xmlns:sodipodi="http://sodipodi.sourceforge.net/DTD/sodipodi-0.dtd"
   xmlns="http://www.w3.org/2000/svg"
   xmlns:svg="http://www.w3.org/2000/svg">
  <sodipodi:namedview
     id="namedview1"
     pagecolor="#ffffff"
     bordercolor="#000000"
     borderopacity="0.25"
     inkscape:showpageshadow="2"
     inkscape:pageopacity="0.0"
     inkscape:pagecheckerboard="true"
     inkscape:deskcolor="#d1d1d1"
     inkscape:document-units="mm"
     inkscape:zoom="1.4142136"
     inkscape:cx="195.86858"
     inkscape:cy="59.043416"
     inkscape:window-width="1920"
     inkscape:window-height="1017"
     inkscape:window-x="-8"
     inkscape:window-y="-8"
     inkscape:window-maximized="1"
     inkscape:current-layer="layer1" />
  <defs
     id="defs1" />
  <g
     inkscape:groupmode="layer"
     id="layer2"
     inkscape:label="图层 2"
     style="display:inline" />
  <g
     inkscape:groupmode="layer"
     id="layer3"
     inkscape:label="图层 3">
    <path
       style="fill:#6d5650;fill-opacity:1;stroke:#4a3024;stroke-width:0.264883;stroke-dasharray:none;stroke-opacity:1"
       d="m 77.013908,40.055869 c 0,0 1.338279,0.926044 1.371319,2.596231 0,0 0.1487,0.661461 1.09045,0.661461 0,0 3.0235,-0.314194 6.030479,0.08268 0,0 0.95827,0.132295 1.17305,-0.46302 l 0.925229,-3.439592 c 0,0 -8.707038,-1.835553 -10.590527,0.56224 z"
       id="path65" />
    <path
       style="fill:#6d5650;fill-opacity:1;stroke:#4a3024;stroke-width:0.264883;stroke-dasharray:none;stroke-opacity:1"
       d="m 101.49933,30.233187 c 0,0 6.60877,0 9.91314,-1.256774 -0.0396,0.0608 3.45213,-1.476897 0.89218,-5.027096 0,0 -1.68523,-2.64584 -4.79134,-3.571885 z"
       id="path64"
       sodipodi:nodetypes="ccccc" />
    <path
       id="path60-8-5"
       style="fill:#d9b09b;fill-opacity:1;stroke:#4a3024;stroke-width:0.167307;stroke-dasharray:none;stroke-opacity:1"
       d="m 106.76439,22.641332 c -0.75044,0.333128 -0.82533,1.310103 -0.83971,1.370255 l -2.52296,2.361423 0.9454,1.086682 2.4534,-2.161701 c 0.36914,0.179209 0.79098,0.181558 1.15543,0.0064 0.69153,-0.332631 0.98543,-1.198294 0.65651,-1.933627 -0.32898,-0.735462 -1.15639,-1.062059 -1.84807,-0.729468 z m 2.03769,2.965338 c -0.81596,-0.02519 -1.28044,0.828389 -1.31788,0.876684 l -3.24719,1.041456 0.41654,1.398242 3.103,-0.890636 c 0.26214,0.323623 0.64385,0.509791 1.04553,0.509932 0.76234,-5.2e-5 1.38032,-0.657111 1.38041,-1.467673 9e-5,-0.810691 -0.61794,-1.467954 -1.38041,-1.468005 z" />
    <path
       style="display:inline;fill:#795955;fill-opacity:1;stroke:#4a3024;stroke-width:0.264883;stroke-dasharray:none;stroke-opacity:1"
       d="m 99.913233,33.474341 c 0,0 6.146147,-7.871375 8.327037,-12.501595 0,0 1.98263,-3.571883 -1.25566,-5.423972 l -8.921827,-3.042716 -7.600058,13.163055 z"
       id="path63" />
    <path
       style="fill:#a78977;fill-opacity:1;stroke:#4a3024;stroke-width:0.264883;stroke-dasharray:none;stroke-opacity:1"
       d="m 98.327133,30.431625 c 0,0 3.866127,-5.093243 5.220927,-8.169032 0,0 1.05739,-2.348183 -0.95828,-3.604956 l -6.641786,-2.447403 -5.452219,9.657317 z"
       id="path62" />
    <path
       style="fill:#6d5650;fill-opacity:1;stroke:#4a3024;stroke-width:0.264883;stroke-dasharray:none;stroke-opacity:1"
       d="m 82.763526,39.262117 c 0,0 8.855728,2.050527 13.514897,2.149745 0,0 3.951637,0.263094 4.208667,-1.818273 0,0 2.07952,-9.868954 -9.065805,-14.07846"
       id="path61" />
    <path
       id="path60-8"
       style="fill:#d9b09b;fill-opacity:1;stroke:#4a3024;stroke-width:0.264883;stroke-dasharray:none;stroke-opacity:1"
       d="m 91.676175,30.590203 c -1.209189,0.518205 -1.329869,2.037959 -1.353029,2.13153 l -4.065329,3.673365 1.523359,1.690413 3.953209,-3.362683 c 0.59483,0.278773 1.27454,0.282426 1.86179,0.01001 1.11427,-0.517432 1.58785,-1.864033 1.05785,-3.007897 -0.53009,-1.144064 -1.86332,-1.65211 -2.97785,-1.13474 z m 3.28342,4.612799 c -1.31479,-0.03919 -2.06323,1.288618 -2.12358,1.363744 l -5.232279,1.62006 0.6712,2.175067 4.999939,-1.385448 c 0.4224,0.503419 1.03746,0.793017 1.68472,0.793236 1.228349,-8e-5 2.224129,-1.022184 2.224259,-2.283071 1.4e-4,-1.26109 -0.99571,-2.283508 -2.224259,-2.283588 z" />
    <path
       style="fill:#6d5650;fill-opacity:1;stroke:#4a3024;stroke-width:0.264883;stroke-dasharray:none;stroke-opacity:1"
       d="m 36.356178,40.038698 c 0,0 -1.33828,0.926044 -1.37132,2.596231 0,0 -0.148693,0.661461 -1.090438,0.661461 0,0 -3.023503,-0.314194 -6.03048,0.08268 0,0 -0.958274,0.132295 -1.173055,-0.46302 l -0.925224,-3.439592 c 0,0 8.707035,-1.835553 10.590517,0.56224 z"
       id="path65-2" />
    <path
       style="fill:#6d5650;fill-opacity:1;stroke:#4a3024;stroke-width:0.264883;stroke-dasharray:none;stroke-opacity:1"
       d="m 11.870759,30.216016 c 0,0 -6.6087593,0 -9.9131345,-1.256774 0.03956,0.0608 -3.4521243,-1.476897 -0.8921828,-5.027096 0,0 1.6852336,-2.64584 4.7913429,-3.571885 z"
       id="path64-3"
       sodipodi:nodetypes="ccccc" />
    <path
       id="path60-8-5-2"
       style="fill:#d9b09b;fill-opacity:1;stroke:#4a3024;stroke-width:0.167307;stroke-dasharray:none;stroke-opacity:1"
       d="m 6.6057044,22.624161 c 0.7504379,0.333128 0.8253318,1.310103 0.8397088,1.370255 L 9.9683777,26.355839 9.0229719,27.442521 6.5695764,25.28082 C 6.2004315,25.460029 5.7785936,25.462378 5.4141457,25.28722 4.7226149,24.954588 4.4287149,24.088926 4.7576348,23.353593 5.0866138,22.618131 5.9140246,22.291534 6.6057044,22.624125 Z m -2.0376925,2.965338 c 0.8159598,-0.02519 1.2804407,0.828389 1.3178877,0.876683 L 9.1330849,27.507639 8.716542,28.905881 5.6135497,28.015245 c -0.262149,0.323623 -0.6438519,0.509791 -1.0455378,0.509932 -0.7623378,-5.2e-5 -1.3803127,-0.657111 -1.3804027,-1.467673 -9e-5,-0.810691 0.6179349,-1.467954 1.3804027,-1.468005 z" />
    <path
       style="display:inline;fill:#795955;fill-opacity:1;stroke:#4a3024;stroke-width:0.264883;stroke-dasharray:none;stroke-opacity:1"
       d="m 13.45686,33.45717 c 0,0 -6.1461477,-7.871375 -8.3270342,-12.501595 0,0 -1.9826306,-3.571884 1.2556627,-5.423972 l 8.9218185,-3.042716 7.600066,13.163055 z"
       id="path63-2" />
    <path
       style="fill:#a78977;fill-opacity:1;stroke:#4a3024;stroke-width:0.264883;stroke-dasharray:none;stroke-opacity:1"
       d="m 15.042961,30.414454 c 0,0 -3.86613,-5.093243 -5.2209243,-8.169032 0,0 -1.0573967,-2.348183 0.9582743,-3.604956 l 6.641791,-2.447403 5.45222,9.657317 z"
       id="path62-1" />
    <path
       style="fill:#6d5650;fill-opacity:1;stroke:#4a3024;stroke-width:0.264883;stroke-dasharray:none;stroke-opacity:1"
       d="m 30.606571,39.244946 c 0,0 -8.855728,2.050527 -13.514898,2.149745 0,0 -3.951643,0.263094 -4.208667,-1.818273 0,0 -2.079526,-9.868954 9.065802,-14.07846"
       id="path61-6" />
    <path
       id="path60-8-8"
       style="fill:#d9b09b;fill-opacity:1;stroke:#4a3024;stroke-width:0.264883;stroke-dasharray:none;stroke-opacity:1"
       d="m 21.506828,29.824677 c 1.209194,0.518205 1.329877,2.037959 1.353037,2.13153 l 4.065323,3.673365 -1.523356,1.690413 -3.953212,-3.362683 c -0.594826,0.278773 -1.274536,0.282426 -1.861787,0.01001 -1.114268,-0.517432 -1.58785,-1.864033 -1.057847,-3.007897 0.530082,-1.144064 1.863315,-1.65211 2.977842,-1.13474 z m -3.283413,4.612799 c 1.314791,-0.03919 2.063229,1.288618 2.123576,1.363744 l 5.232274,1.62006 -0.671198,2.175067 -4.999939,-1.385448 c -0.422396,0.503419 -1.037454,0.793017 -1.684713,0.793236 -1.228356,-8e-5 -2.224128,-1.022184 -2.224258,-2.283071 -1.5e-4,-1.26109 0.995702,-2.283508 2.224258,-2.283588 z" />
  </g>
  <g
     inkscape:label="图层 1"
     inkscape:groupmode="layer"
     id="layer1">
    <path
       style="display:inline;fill:#795955;fill-opacity:1;stroke:#4a3024;stroke-width:0.264883;stroke-dasharray:none;stroke-opacity:1"
       d="m 32.86882,40.261163 c 0,0 25.874203,-2.705668 44.153489,0.579785 0,0 4.650279,0.853574 6.291548,-1.610516 L 99.935784,11.755033 c 0,0 1.641266,-4.7671277 -1.60909,-6.4903797 0,0 -20.053186,-10.49249 -42.080991,-1.473141 0,0 -23.449909,-8.480837 -41.654708,0.538512 0,0 -3.123098,2.174727 -1.835823,4.654921 L 28.427728,36.879079 c 0,0 1.383815,3.382084 4.441092,3.382084 z"
       id="path59"
       sodipodi:nodetypes="cccccccccc" />
    <path
       style="font-variation-settings:'wght' 500;fill:#a78977;fill-opacity:1;stroke:#4a3024;stroke-width:0.264883;stroke-dasharray:none;stroke-opacity:1"
       d="m 34.606639,36.073822 c 0,0 19.695295,-2.190304 42.67312,0.257681 0,0 2.370639,0.796154 3.986309,-1.777549 L 94.305255,11.982805 c 0,0 0.81922,-2.6420307 -0.61441,-3.3480917 0,0 -15.316907,-7.541296 -37.200552,0.189181 0,0 -18.150566,-7.408374 -36.043662,-0.644207 0,0 -2.692553,1.001654 -1.509241,3.4386997 l 11.969656,22.297835 c 0,0 1.58503,2.219796 3.699593,2.1576 z"
       id="path58" />
    <path
       style="font-variation-settings:'wght' 500;fill:#6a564f;fill-opacity:1;stroke:#4a3024;stroke-width:0.264883;stroke-dasharray:none;stroke-opacity:1"
       d="m 73.719169,35.46881 c 0.32188,-1.181251 -18.617045,-14.93979 -34.549132,-0.0032 l 14.933177,7.747219 c 0,0 2.412139,0.81994 4.687739,-0.04555 2.275599,-0.865493 14.928216,-7.698429 14.928216,-7.698429 z"
       id="path57"
       sodipodi:nodetypes="cccscc" />
    <path
       id="path56"
       style="font-variation-settings:'wght' 500;fill:#cbaa9f;fill-opacity:1;stroke:#4a3024;stroke-width:0.264883;stroke-dasharray:none;stroke-opacity:1"
       d="m 58.350773,40.45297 4.983569,-6.05845 m -6.303409,5.375168 1.79772,-7.698335 m -3.09482,7.766663 -1.843229,-7.903318 m 0.75095,8.518272 -5.233879,-6.286212 m 4.481419,7.398921 -7.326898,-3.706475 c 0,0 -0.75075,-3.138217 2.789249,-3.718002 0,0 1.54473,-3.253242 4.521549,-2.254721 0,0 2.349279,-2.383564 4.972099,0.08052 0,0 3.346919,-0.917988 4.537639,2.351358 0,0 3.435649,0.04374 2.824199,3.747924 l -7.007828,3.483292 c 0,0 -0.64365,0.03221 -0.9011,-1.095151 0,0 -0.67582,0.225473 -1.28727,-0.660311 0,0 -0.531,0.338209 -1.28728,-0.03221 0,0 -0.466639,0.611996 -1.094179,0.644206 0,0 -0.0322,0.773045 -0.74018,1.15957 z"
       sodipodi:nodetypes="ccccccccccccccccccccc" />
    <path
       style="font-size:14.1111px;font-family:'Inazuma Brush';-inkscape-font-specification:'Inazuma Brush, Normal ';fill:#3e3333;stroke-width:0.264884"
       d="m 38.951487,11.288491 c -1.0151,0 -1.18429,0.508002 -1.804629,0.959558 -0.62034,0.437445 -0.91642,0.705557 -0.88821,1.044224 0.0141,0.338668 0.21147,0.522112 0.56394,0.889002 0.35247,0.381 0.860019,0.310445 0.916409,0.465667 0.0564,0.155223 0.0282,2.427116 0.0282,3.21734 0,0.790224 0.11279,3.626562 0.31018,3.810007 0.19737,0.169333 0.80362,-0.183445 1.21248,-1.580447 0.15508,-0.536224 0.11279,-2.10256 0.11279,-3.358451 0,-1.241781 -0.28197,-2.398894 -0.11279,-2.695227 0.15508,-0.282223 1.57905,-1.044225 1.67774,-1.425225 0.0846,-0.36689 -0.83182,-1.326448 -2.01611,-1.326448 z m -0.33837,12.714136 c 0.0282,1.270002 0.87412,1.778003 2.49546,1.778003 1.029199,0 1.621349,-0.437445 2.086609,-0.903113 0.46525,-0.465668 0.63444,-1.199447 0.87412,-1.326447 0.22557,-0.127001 2.594149,2.97745 3.186289,2.97745 0.59215,0 2.41087,-2.624671 1.1702,-2.652893 -0.40887,-0.01411 -0.49346,0.296333 -0.91642,0.296333 -0.40886,0 -1.282979,-0.804335 -1.480359,-1.00189 -0.18329,-0.169335 -1.15609,-0.846668 -1.32528,-1.227669 -0.18328,-0.451557 -0.16918,-6.011345 0.0423,-6.434679 0.21148,-0.437446 0.97281,-0.874891 0.97281,-1.636892 0,-0.578557 -0.93051,-0.296335 -1.32528,-0.324557 -0.39476,-0.02822 -0.9869,-0.366889 -1.40986,-0.09878 -0.42296,0.268111 -0.60625,0.691445 -1.381669,1.354669 -0.76133,0.677334 -1.83283,1.030112 -1.79053,1.467559 0.0282,0.451556 0.77542,1.213557 1.25478,1.143002 0.49345,-0.07056 1.720029,-0.790225 1.846919,-0.635002 0.12689,0.155222 0.25378,3.922896 0.0282,3.951118 -0.21149,0.01411 -2.114809,-0.211666 -2.918429,0.47978 -0.80362,0.677333 -1.45216,1.538114 -1.40987,2.794005 z m 1.60725,-0.254001 c -0.26788,-0.381001 -0.22558,-0.818446 0.23967,-1.086558 0.63444,-0.36689 1.43808,-0.49389 1.57906,-0.268111 0.126889,0.211667 -0.28198,0.663223 -0.66264,1.086558 -0.43706,0.493889 -0.90232,0.649111 -1.15609,0.268111 z M 55.658413,12.276271 c -0.648549,1.044225 -0.493459,1.975559 -0.578049,2.088449 -0.0987,0.112889 -0.73313,0.08467 -1.21248,0.07056 -0.49346,0 -0.78953,-0.141112 -1.0997,-0.183446 -0.31017,-0.04233 -1.01511,0.747891 -1.00101,1.143002 0,0.395112 0.50755,0.73378 0.73313,0.846668 0.21149,0.11289 0.31017,0.395113 0.93051,0.409224 0.60625,0.02822 1.83283,-0.366889 1.88923,-0.296334 0.0563,0.08467 0.0563,1.100669 -0.0141,1.157113 -0.0705,0.07056 -1.1138,0.423334 -1.32528,0.564445 -0.15508,0.11289 -0.14099,0.578558 -0.0141,0.762002 0.28198,0.437445 0.78953,1.016002 1.35348,1.001891 0.563939,0 0.634439,-0.592668 0.874119,-0.959558 0.12689,-0.197555 0.53574,-0.197555 1.001,-0.197555 0.47935,-0.01411 1.46626,0.155222 1.98791,0.719668 0.52165,0.578556 0.73313,0.987779 0.73313,1.919114 -0.0141,0.931335 -0.21148,1.862671 -1.0292,2.300116 -0.81773,0.451556 -1.53675,0.733779 -2.65055,0.733779 -1.113799,0 -1.790529,-0.395112 -2.086599,-0.606779 -0.29608,-0.197556 -0.97281,-0.705557 -1.0997,-0.62089 -0.12689,0.08467 0.23968,1.00189 0.46526,1.227669 0.23968,0.23989 0.31017,0.296334 0.26787,0.338667 -0.0282,0.04233 -0.50755,-0.169334 -0.0563,0.268112 0.43707,0.423334 1.00101,1.157114 2.847939,1.114779 1.86102,-0.04233 3.496469,-0.409223 4.441069,-1.707447 0.95872,-1.284113 1.08561,-1.905003 1.0997,-3.033894 0.0141,-1.143003 -0.54984,-2.271894 -1.17018,-2.794005 -0.60625,-0.522113 -1.818729,-1.312337 -3.017119,-1.326448 -0.70493,0 -1.46626,0.197557 -1.49445,0.05645 -0.0423,-0.141111 -0.0141,-0.917224 0.22557,-1.058336 0.23968,-0.141111 1.79053,-0.437445 2.19939,-0.423334 0.40887,0.01411 0.46526,0.211668 0.83182,0.211668 0.352469,-0.01411 1.226589,-0.268112 1.480369,-0.677335 0.25377,-0.409223 0.18328,-0.973669 -0.0282,-1.411114 -0.21147,-0.451556 -0.26787,-0.635001 -0.50755,-0.846668 -0.22557,-0.211667 -0.775429,-0.296334 -1.127889,-0.451556 -0.36656,-0.169335 -1.28297,-0.762002 -1.60725,-0.959558 -0.60624,-0.381001 -1.66364,-0.296333 -2.24168,0.62089 z m -0.789529,9.200462 c -0.0564,0.07055 0,0.804334 0.0423,1.128891 0.0282,0.338667 0.36657,0.705557 0.860009,0.705557 0.59215,0 0.94462,-0.239889 0.94462,-0.677335 -0.0141,-0.437445 -0.35247,-0.776113 -0.53575,-0.804335 -0.19739,-0.02822 -0.747229,0.04233 -0.916419,-0.07055 -0.15509,-0.112889 -0.36656,-0.324557 -0.39476,-0.282223 z m 1.564959,-0.423334 c 0,0.08467 0.42295,0.324556 0.53574,0.437445 0.12689,0.127001 0.33836,0.352778 0.60624,0.352778 0.28198,-0.01411 0.49345,-0.155222 0.49345,-0.522112 0,-0.310445 -0.23968,-0.564446 -0.66263,-0.578557 -0.23968,0 -0.42296,0.09878 -0.54985,0.127001 -0.12689,0.02822 -0.42295,0.09878 -0.42295,0.183445 z m 0.56394,-6.618123 c -0.0423,-0.09878 0.29607,-0.776113 0.67673,-1.100669 0.38067,-0.310445 1.21249,-0.663224 1.87513,-0.04233 0.592139,0.578557 0.535739,0.931335 0.35247,1.044224 -0.26788,0.169334 -0.94462,0.169334 -1.32528,0.169334 -0.39477,0 -1.53676,0 -1.57905,-0.07055 z m 13.055357,1.552225 c -2.086599,0 -3.623349,-0.05644 -3.623349,1.792114 0,0.747891 0.81773,0.973668 1.56495,0.973668 0.80363,0 1.522659,-0.05644 2.185289,-0.127 -0.12689,1.326447 -0.21147,2.85045 -0.21147,4.58612 0,1.98967 1.0151,2.906895 1.90332,2.906895 0.88822,0 3.003009,-2.34245 3.003009,-3.118563 0,-0.776112 -0.12689,-0.338667 -0.12689,-0.846668 0,-0.776112 -0.62034,-1.340557 -1.19838,-1.340557 -0.253779,0 -0.338369,0.211666 -0.676739,0.324555 -0.35246,0.11289 0.0565,0.169334 0.12688,0.197557 0.0565,0.01411 -0.0141,0.762001 -0.45115,1.453447 -0.43706,0.705557 -0.64854,1.00189 -0.76133,1.00189 -0.28197,0 -0.21148,-3.203228 0.0141,-5.376343 0.93051,-0.127 1.861029,-0.268111 2.932529,-0.324556 2.45316,-0.127 5.033219,0.01411 5.033219,-0.917224 0,-0.536223 -0.83182,-1.171224 -1.46626,-1.171224 -0.902309,0 -0.0282,0.254 -0.23968,0.479778 -0.11279,0.141111 -0.972809,-0.352778 -5.850948,-0.465667 0.28197,-1.143002 0.56395,-1.86267 0.87412,-2.384782 0.408859,-0.663224 0.521649,-0.649113 0.535749,-0.945447 0.0141,-0.310445 -0.12689,-0.395112 -0.11279,-0.691446 0,-0.395112 -0.620339,-0.691446 -0.944609,-0.691446 -0.49345,0 -1.40987,1.495781 -2.01611,4.684899 -0.15508,0 -0.32427,0 -0.49346,0 z m 5.724069,4.035784 c 0.49345,0.578557 0.32427,1.086558 0.32427,1.792115 0,0.49389 0.80362,1.340558 1.15609,1.340558 0.35246,0 1.127879,-0.762001 1.127879,-1.425225 0,-0.663223 -0.35245,-1.086557 -0.902309,-1.524002 -0.54984,-0.451557 -1.17019,-0.620891 -1.49445,-0.635002 -0.32428,-0.01411 -0.45116,0.169334 -0.21148,0.451556 z"
       id="text58"
       aria-label="YET"
       inkscape:label="TEXT" />
  </g>
</svg>
